<?xml version="1.0" encoding="UTF-8" standalone="no"?>
<!DOCTYPE svg PUBLIC "-//W3C//DTD SVG 1.1//EN" "http://www.w3.org/Graphics/SVG/1.1/DTD/svg11.dtd">
<svg version="1.1" xmlns="http://www.w3.org/2000/svg" xmlns:xlink="http://www.w3.org/1999/xlink" preserveAspectRatio="xMidYMid meet" viewBox="89.23811077719702 37.62837376008795 445.97282729080644 445.9728272908063" width="441.97" height="441.97"><defs><path d="M279.66 228.05L342.79 228.05L342.79 291.18L279.66 291.18L279.66 228.05Z" id="a14vWz31nh"></path><path d="M279.66 164.91L342.79 164.91L342.79 228.05L279.66 228.05L279.66 164.91Z" id="f1usxee4BE"></path><path d="M342.79 164.91L405.93 164.91L405.93 228.05L342.79 228.05L342.79 164.91Z" id="bp8ZcSuzX"></path><path d="M342.79 228.05L405.93 228.05L405.93 291.18L342.79 291.18L342.79 228.05Z" id="ciIZeBomH"></path><path d="M342.79 291.18L405.93 291.18L405.93 354.32L342.79 354.32L342.79 291.18Z" id="b67p6IaCJK"></path><path d="M279.66 291.18L342.79 291.18L342.79 354.32L279.66 354.32L279.66 291.18Z" id="cerT8G2BK"></path><path d="M216.52 291.18L279.66 291.18L279.66 354.32L216.52 354.32L216.52 291.18Z" id="a2773TPCEV"></path><path d="M216.52 228.05L279.66 228.05L279.66 291.18L216.52 291.18L216.52 228.05Z" id="b1FBoGTPry"></path><path d="M216.52 164.91L279.66 164.91L279.66 228.05L216.52 228.05L216.52 164.91Z" id="aZxJL47Nn"></path><path d="M279.66 101.77L342.79 101.77L342.79 164.91L279.66 164.91L279.66 101.77Z" id="gxsUufBbx"></path><path d="M279.66 38.63L342.79 38.63L342.79 101.77L279.66 101.77L279.66 38.63Z" id="a9N5pvH8hu"></path><path d="M405.93 228.05L469.07 228.05L469.07 291.18L405.93 291.18L405.93 228.05Z" id="d6m3edjeVU"></path><path d="M469.07 228.05L532.21 228.05L532.21 291.18L469.07 291.18L469.07 228.05Z" id="b48X8l8HzU"></path><path d="M279.66 354.32L342.79 354.32L342.79 417.46L279.66 417.46L279.66 354.32Z" id="bBOYyCs0o"></path><path d="M279.66 417.46L342.79 417.46L342.79 480.6L279.66 480.6L279.66 417.46Z" id="aPyHPHyd1"></path><path d="M153.38 228.05L216.52 228.05L216.52 291.18L153.38 291.18L153.38 228.05Z" id="a269hoi9SA"></path><path d="M90.24 228.05L153.38 228.05L153.38 291.18L90.24 291.18L90.24 228.05Z" id="aDeGSMDhg"></path></defs><g><g><use xlink:href="#a14vWz31nh" opacity="1" fill="#ffe00f" fill-opacity="1"></use></g><g><use xlink:href="#f1usxee4BE" opacity="1" fill="#fcea6c" fill-opacity="1"></use></g><g><use xlink:href="#bp8ZcSuzX" opacity="1" fill="#ffe00f" fill-opacity="1"></use></g><g><use xlink:href="#ciIZeBomH" opacity="1" fill="#fcea6c" fill-opacity="1"></use></g><g><use xlink:href="#b67p6IaCJK" opacity="1" fill="#ffe00f" fill-opacity="1"></use></g><g><use xlink:href="#cerT8G2BK" opacity="1" fill="#fcea6c" fill-opacity="1"></use></g><g><use xlink:href="#a2773TPCEV" opacity="1" fill="#ffe00f" fill-opacity="1"></use></g><g><use xlink:href="#b1FBoGTPry" opacity="1" fill="#fcea6c" fill-opacity="1"></use></g><g><use xlink:href="#aZxJL47Nn" opacity="1" fill="#ffe00f" fill-opacity="1"></use></g><g><use xlink:href="#gxsUufBbx" opacity="1" fill="#ffe00f" fill-opacity="1"></use></g><g><use xlink:href="#a9N5pvH8hu" opacity="1" fill="#ffd117" fill-opacity="1"></use></g><g><use xlink:href="#d6m3edjeVU" opacity="1" fill="#ffe00f" fill-opacity="1"></use></g><g><use xlink:href="#b48X8l8HzU" opacity="1" fill="#ffd117" fill-opacity="1"></use></g><g><use xlink:href="#bBOYyCs0o" opacity="1" fill="#ffe00f" fill-opacity="1"></use></g><g><use xlink:href="#aPyHPHyd1" opacity="1" fill="#ffd117" fill-opacity="1"></use></g><g><use xlink:href="#a269hoi9SA" opacity="1" fill="#ffe00f" fill-opacity="1"></use></g><g><use xlink:href="#aDeGSMDhg" opacity="1" fill="#ffd117" fill-opacity="1"></use></g></g></svg>